<svg width="51" height="52" viewBox="0 0 51 52" fill="none" xmlns="http://www.w3.org/2000/svg">
<path d="M49.0784 22.0708L40.8032 30.2789L36.1189 25.5477L39.688 22.0326C39.9723 21.7033 39.9552 21.2109 39.6487 20.902C39.3427 20.5934 38.8505 20.5723 38.5189 20.8539L34.9416 24.3608L32.6033 21.9952L40.8704 13.7871C41.1944 13.4636 41.1966 12.9392 40.8751 12.6131C40.5517 12.2891 40.0273 12.2869 39.7012 12.6084L30.8326 21.4055C30.6742 21.561 30.5847 21.7736 30.5838 21.9955C30.5829 22.2175 30.6707 22.4304 30.8277 22.5876L32.005 23.7659L30.8182 24.9436C29.4263 23.5392 27.2387 23.3075 25.5839 24.3894L24.9374 23.7372C24.1605 22.956 23.1054 22.5147 22.0034 22.5098C21.4826 22.5077 20.9656 22.6015 20.4787 22.7869L19.0609 21.3576L19.6543 20.7771C19.8127 20.6212 19.9022 20.409 19.9031 20.1871C19.904 19.9651 19.8162 19.7517 19.6592 19.595L11.4263 11.3197C11.1012 10.994 10.5735 10.9939 10.2482 11.319C9.92252 11.6441 9.92241 12.1713 10.2475 12.497L17.867 20.1788L17.2736 20.7589L13.0943 24.863L10.1678 21.9039C10.0119 21.7456 9.79966 21.6561 9.57771 21.6552C9.35577 21.6543 9.14241 21.742 8.98567 21.8991C8.66119 22.2226 8.65905 22.747 8.98089 23.0731L11.9156 26.0321L10.7287 27.2009L9.61644 28.4203L1.99711 20.7052C1.84166 20.5469 1.62902 20.4574 1.40708 20.4565C1.18513 20.4556 0.972174 20.5433 0.815032 20.7004C0.490955 21.0239 0.488821 21.5483 0.810254 21.8744L9.01835 30.1496C9.17503 30.3059 9.38727 30.3937 9.60841 30.3934C9.82994 30.3955 10.0429 30.3094 10.2008 30.1544L11.3544 28.9851L12.5231 30.1638C10.8918 31.7828 10.881 34.4172 12.4992 36.0494L14.0583 37.596C14.2138 37.7544 14.4264 37.8438 14.6484 37.8447C14.8703 37.8456 15.0833 37.7579 15.2404 37.6008C15.5645 37.2773 15.5666 36.753 15.2452 36.4269L13.7112 34.8808C13.2428 34.4102 12.9812 33.7726 12.9839 33.1088C12.9866 32.4445 13.2534 31.809 13.7256 31.3427L14.3109 30.7621L20.2286 24.892C21.2219 23.9574 22.773 23.9637 23.7586 24.9064L29.0316 30.2225C29.3132 30.5541 29.2921 31.0463 28.9836 31.3528C28.6746 31.6588 28.1822 31.6759 27.8533 31.3916L24.0308 27.5383C23.7037 27.2106 23.1724 27.21 22.8447 27.5376C22.5169 27.8651 22.5164 28.396 22.8439 28.7237L26.666 32.5774C27.3769 33.2994 28.4532 33.5209 29.3909 33.1377C30.3291 32.7546 30.9425 31.8428 30.9442 30.8298C30.9461 30.1677 30.6853 29.5316 30.2185 29.0619L26.8029 25.6179C27.7607 25.1885 28.8835 25.3841 29.6394 26.1124L36.6788 33.2093C37.1423 33.6802 37.4003 34.3162 37.3959 34.9772C37.3949 35.6382 37.1317 36.2716 36.6644 36.7388L34.2988 39.0853L31.8748 41.4815L30.161 43.1895L25.4301 47.882C25.104 48.2034 24.5797 48.2013 24.2562 47.8772C23.9348 47.5515 23.9369 47.0272 24.261 46.7037L29.619 41.4138C29.8572 41.2115 29.9622 40.8924 29.8903 40.588C29.8183 40.2837 29.5819 40.0453 29.2782 39.9709C28.974 39.8965 28.6545 39.9985 28.4498 40.2354L23.1252 45.5084C22.794 45.79 22.3018 45.7689 21.9953 45.4603C21.6893 45.1514 21.6722 44.659 21.9564 44.3297L27.2725 39.0567C27.4309 38.9012 27.5204 38.6886 27.5213 38.4666C27.5222 38.2447 27.4344 38.0317 27.2774 37.8746C26.9539 37.5505 26.4295 37.5484 26.1034 37.8698L20.7787 43.1513C20.453 43.4728 19.9286 43.4706 19.6052 43.1466C19.4481 42.9894 19.3603 42.7765 19.3612 42.5545C19.3621 42.3326 19.4516 42.1199 19.61 41.9645L24.9261 36.6911C25.0845 36.5356 25.1739 36.323 25.1748 36.101C25.1757 35.8791 25.088 35.6661 24.9309 35.509C24.6074 35.1849 24.0831 35.1828 23.757 35.5042L18.4327 40.7857C18.1049 41.1084 17.5773 41.1046 17.2547 40.7769C16.9316 40.4491 16.9358 39.9215 17.2635 39.5989L23.6914 33.2312C24.0192 32.9061 24.0213 32.3769 23.6962 32.0491C23.3711 31.7214 22.8419 31.7192 22.5141 32.0443L16.0528 38.4366C15.0749 39.4078 15.0685 40.9875 16.0385 41.9666C16.4668 42.4074 17.0449 42.6715 17.6586 42.7057C17.7278 43.9735 18.7375 44.9877 20.0051 45.0628C20.0702 46.3342 21.0811 47.3529 22.3515 47.4284C22.373 48.0545 22.6291 48.6503 23.0691 49.0964C23.8165 49.8482 24.9571 50.0467 25.9142 49.5909L26.5939 50.2847C27.2923 50.9891 28.3418 51.2137 29.2676 50.8565C30.193 50.4993 30.8193 49.6283 30.8632 48.637C31.4905 48.6205 32.0879 48.3636 32.5311 47.9194C32.9654 47.4871 33.2255 46.9105 33.2621 46.2989C34.5335 46.2341 35.5522 45.2232 35.6277 43.9524C36.6193 43.917 37.4954 43.2974 37.8601 42.3749C38.2253 41.452 38.0092 40.4012 37.3101 39.6971L36.7214 39.1118L37.9083 37.9345C38.6895 37.1576 39.1308 36.1025 39.1357 35.0005C39.1195 34.1765 38.8589 33.3758 38.3873 32.7L39.6497 31.4482L40.2383 32.0416C40.5618 32.3657 41.0862 32.3678 41.4123 32.0464L50.2557 23.2492C50.5798 22.9261 50.5819 22.4013 50.2605 22.0756C50.1051 21.9173 49.8924 21.8278 49.6705 21.8269C49.4485 21.826 49.2356 21.9137 49.0784 22.0708ZM12.5579 27.8079L17.8826 22.5349L19.0513 23.7132L13.7352 28.9948L12.5579 27.8079ZM28.9549 49.0703C28.6288 49.3918 28.1045 49.3896 27.7814 49.0655L27.1928 48.4721L28.3796 47.303L28.9598 47.8882C29.1168 48.045 29.2046 48.2583 29.2037 48.4803C29.2028 48.7022 29.1133 48.9149 28.9549 49.0703ZM31.3206 46.7239C30.9945 47.0453 30.4701 47.0432 30.1466 46.7191L29.5998 46.1258L30.1933 45.5372L30.7782 44.9567L31.3672 45.542C31.5239 45.6991 31.6117 45.9121 31.6108 46.134C31.6099 46.356 31.5204 46.5686 31.3624 46.724L31.3206 46.7239ZM33.6862 44.3774C33.3601 44.6989 32.8357 44.6967 32.5122 44.3727L31.9236 43.7792L33.1023 42.6104L33.691 43.2039C34.0124 43.53 34.0103 44.0544 33.6862 44.3774ZM36.0518 42.0314C35.8947 42.1881 35.6817 42.2758 35.4598 42.2749C35.2378 42.274 35.0252 42.1845 34.8697 42.0266L34.2892 41.4328L35.4513 40.2639L36.0399 40.8574C36.3658 41.1786 36.3714 41.7034 36.0518 42.0314ZM37.2685 31.4385L31.9955 26.122L33.1742 24.9532L38.4557 30.2694L37.2685 31.4385Z" fill="#FFBB01"/>
<path d="M16.4093 14.2953L34.7243 14.3698C35.184 14.3717 35.5583 14.0004 35.5602 13.5407L35.6076 1.88574C35.6095 1.42599 35.2382 1.05172 34.7785 1.04985L16.4635 0.975312C16.0038 0.973441 15.6295 1.34468 15.6277 1.80442L15.5802 13.4594C15.5783 13.9191 15.9496 14.2934 16.4093 14.2953ZM17.2554 10.9687C18.1749 10.9724 18.9173 11.721 18.9136 12.6404L17.2486 12.6337L17.2554 10.9687ZM33.8985 12.7014L32.2336 12.6946C32.2373 11.7752 32.9858 11.0327 33.9053 11.0364L33.8985 12.7014ZM33.9324 4.37645C33.0129 4.37271 32.2705 3.62417 32.2742 2.70468L33.9392 2.71146L33.9324 4.37645ZM33.9257 6.04145L33.9121 9.37144C32.0727 9.36395 30.576 10.8489 30.5686 12.6879L20.5786 12.6472C20.5861 10.8082 19.1011 9.31116 17.2622 9.30367L17.2757 5.97368C19.1147 5.98117 20.6118 4.49622 20.6192 2.65725L30.6092 2.69791C30.6017 4.53688 32.0863 6.03396 33.9257 6.04145ZM17.2893 2.64369L18.9543 2.65047C18.9505 3.56996 18.202 4.31243 17.2825 4.30869L17.2893 2.64369Z" fill="#FFBB01"/>
<path d="M25.5801 11.0026C27.4191 11.0101 28.9162 9.52511 28.9236 7.68613C28.9311 5.84716 27.4462 4.35008 25.6072 4.34259C23.7678 4.33511 22.2712 5.82006 22.2637 7.65903C22.2562 9.498 23.7407 10.9951 25.5801 11.0026ZM25.6004 6.00759C26.5199 6.01133 27.2624 6.75987 27.2587 7.67936C27.2549 8.59884 26.5064 9.34132 25.5869 9.33758C24.6674 9.33383 23.9249 8.58529 23.9287 7.66581C23.9324 6.74632 24.6809 6.00385 25.6004 6.00759Z" fill="#FFBB01"/>
<path d="M32.2537 7.69963C32.2518 8.15937 31.8775 8.53061 31.4178 8.52873C30.958 8.52686 30.5868 8.15259 30.5887 7.69285C30.5905 7.23311 30.9648 6.86187 31.4246 6.86374C31.8843 6.86561 32.2555 7.23988 32.2537 7.69963Z" fill="#FFBB01"/>
<path d="M20.5987 7.6522C20.5969 8.11194 20.2226 8.48318 19.7629 8.48131C19.3031 8.47944 18.9319 8.10517 18.9337 7.64542C18.9356 7.18568 19.3099 6.81444 19.7696 6.81632C20.2294 6.81819 20.6006 7.19246 20.5987 7.6522Z" fill="#FFBB01"/>
<path d="M50.4325 6.48336L47.1228 1.47483C46.9689 1.24372 46.7105 1.10486 46.4333 1.10373C46.1561 1.1026 45.8962 1.23935 45.7408 1.4692L42.3904 6.45063C42.2988 6.58562 42.249 6.74477 42.2471 6.90777L42.2336 10.2378C42.2317 10.6975 42.6029 11.0718 43.0627 11.0736C43.5224 11.0755 43.8967 10.7043 43.8986 10.2445L43.9111 7.16413L46.4238 3.42806L48.9061 7.18446L48.8698 16.0923C48.868 16.5521 49.2392 16.9264 49.6989 16.9282C50.1587 16.9301 50.533 16.5589 50.5348 16.0991L50.5721 6.94165C50.5715 6.77864 50.523 6.6191 50.4325 6.48336Z" fill="#FFBB01"/>
<path d="M47.2184 12.7556L47.2388 7.76066C47.2406 7.30092 46.8694 6.92665 46.4097 6.92477C45.9499 6.9229 45.5756 7.29414 45.5738 7.75388L45.5534 12.7489C45.5516 13.2086 45.9228 13.5829 46.3826 13.5848C46.8423 13.5866 47.2166 13.2154 47.2184 12.7556Z" fill="#FFBB01"/>
<path d="M1.44796 8.40682L2.28046 8.41021L2.2398 18.4002C2.23793 18.8599 2.60917 19.2342 3.06891 19.2361C3.52865 19.2379 3.90292 18.8667 3.90479 18.407L3.94884 7.58449C3.95071 7.12475 3.57948 6.75048 3.11973 6.7486L3.06973 6.7484L5.63172 3.19586L8.16471 6.76914L8.11471 6.76893C7.65497 6.76706 7.2807 7.1383 7.27883 7.59804L7.27205 9.26304C7.27018 9.72278 7.64142 10.0971 8.10116 10.0989C8.56091 10.1008 8.93518 9.72956 8.93705 9.26981L8.94044 8.43732L9.77293 8.4407C10.0839 8.44034 10.3688 8.26711 10.5117 7.99087C10.6547 7.71503 10.6317 7.38202 10.4527 7.12804L6.31389 1.28362C6.15786 1.06673 5.90799 0.937661 5.64092 0.936574C5.37385 0.935487 5.12253 1.06251 4.96515 1.27813L0.778943 7.08867C0.59743 7.34118 0.572092 7.674 0.712833 7.95099C0.853572 8.22839 1.137 8.40393 1.44796 8.40682Z" fill="#FFBB01"/>
<path d="M5.59346 12.5862L5.58329 15.0837C5.58142 15.5434 5.95266 15.9177 6.4124 15.9196C6.87215 15.9215 7.24642 15.5502 7.24829 15.0905L7.25845 12.593C7.26033 12.1333 6.88909 11.759 6.42934 11.7571C5.9696 11.7552 5.59533 12.1265 5.59346 12.5862Z" fill="#FFBB01"/>
</svg>
