<svg width="50" height="51" viewBox="0 0 50 51" fill="none" xmlns="http://www.w3.org/2000/svg">
<path d="M42.6133 37.4825L39.6517 40.4201L37.8924 38.6383C37.5671 38.3102 37.0374 38.3081 36.7093 38.6334C36.3813 38.9588 36.3792 39.4885 36.7045 39.8165L39.053 42.1842C39.2085 42.3427 39.4214 42.4322 39.6435 42.4331C39.8656 42.434 40.0788 42.3462 40.236 42.189L43.8249 38.6624C44.0634 38.4599 44.1684 38.1406 44.0964 37.836C44.0244 37.531 43.7878 37.2924 43.4838 37.2179C43.1798 37.1435 42.8596 37.2459 42.6548 37.4827L42.6133 37.4825Z" fill="#FFBB01"/>
<path d="M43.8533 31.6969L43.8638 29.1139C43.8657 28.6538 43.4941 28.2792 43.034 28.2773L40.5344 28.2671L40.5378 27.4339C40.5434 26.0535 41.6671 24.9389 43.0475 24.9445C43.5077 24.9464 43.8823 24.5748 43.8841 24.1147C43.886 23.6545 43.5145 23.28 43.0543 23.2781C40.7537 23.2687 38.8807 25.1265 38.8713 27.4271L38.868 28.2604L36.3683 28.2502C35.9082 28.2483 35.5336 28.6199 35.5317 29.08L35.5212 31.663C31.2402 33.6041 28.8896 38.2651 29.873 42.8612C30.8567 47.4577 34.909 50.7485 39.6096 50.7676C44.3098 50.7867 48.389 47.529 49.4102 42.9407C50.4309 38.3528 48.1183 33.6728 43.8533 31.6969ZM40.4496 49.0972L40.453 48.264C40.4548 47.8039 40.0833 47.4293 39.6232 47.4274C39.163 47.4256 38.7884 47.7971 38.7866 48.2573L38.7832 49.0905C34.8115 48.6935 31.6795 45.5358 31.3148 41.5611L32.1481 41.5645C32.6082 41.5664 32.9828 41.1948 32.9846 40.7347C32.9865 40.2745 32.615 39.9 32.1548 39.8981L31.3216 39.8947C31.6484 36.7841 33.6894 34.1186 36.6074 32.9921C36.9285 32.8697 37.1413 32.563 37.1439 32.2193L37.1533 29.9198L42.1525 29.9402L42.1431 32.2396C42.1426 32.5834 42.3529 32.8918 42.6729 33.0168C45.6143 34.1423 47.6698 36.8293 47.9857 39.9625L47.1525 39.9591C46.6924 39.9573 46.3178 40.3288 46.3159 40.7889C46.3141 41.2491 46.6856 41.6237 47.1457 41.6255L47.979 41.6289C47.582 45.6006 44.4243 48.7326 40.4496 49.0972Z" fill="#FFBB01"/>
<path d="M27.3135 44.0445C27.1386 44.0438 4.64203 43.9522 4.64203 43.9522C3.26163 43.9466 2.14697 42.8228 2.15259 41.4424L2.26111 14.7799L45.5878 14.9562L45.5252 30.3371C45.5233 30.7973 45.8949 31.1719 46.355 31.1737C46.8151 31.1756 47.1897 30.804 47.1916 30.3439L47.2779 9.13054C47.2873 6.82987 45.4295 4.95692 43.1289 4.94755L41.4625 4.94077L41.4658 4.10757C41.4677 3.64743 41.0962 3.27284 40.636 3.27097C40.1759 3.2691 39.8013 3.64065 39.7994 4.10079L39.7859 7.43361C39.7821 8.35388 39.0329 9.09698 38.1127 9.09323C37.1924 9.08949 36.4493 8.34031 36.453 7.42004L36.4666 4.08722C36.4704 3.16695 37.2195 2.42385 38.1398 2.42759C38.5999 2.42946 38.9745 2.05791 38.9764 1.59778C38.9783 1.13764 38.6067 0.763054 38.1466 0.761181C36.306 0.75369 34.8077 2.2399 34.8002 4.08044L34.7968 4.91364L27.298 4.88312L27.3014 4.04992C27.3032 3.58978 26.9317 3.21519 26.4715 3.21332C26.0114 3.21145 25.6368 3.583 25.6349 4.04314L25.6214 7.37596C25.6176 8.29623 24.8685 9.03933 23.9482 9.03559C23.0279 9.03184 22.2848 8.28266 22.2886 7.36239L22.3021 4.02957C22.3059 3.1093 23.055 2.3662 23.9753 2.36994C24.4354 2.37182 24.81 2.00026 24.8119 1.54013C24.8138 1.07999 24.4422 0.705405 23.9821 0.703532C22.1416 0.696042 20.6432 2.18225 20.6357 4.02279L20.6323 4.85599L13.1335 4.82547L13.1369 3.99227C13.1387 3.53214 12.7672 3.15755 12.307 3.15567C11.8469 3.1538 11.4723 3.52535 11.4704 3.98549L11.4569 7.31831C11.4531 8.23858 10.704 8.98168 9.78369 8.97794C8.86342 8.97419 8.12032 8.22501 8.12406 7.30474L8.13763 3.97192C8.14137 3.05165 8.89055 2.30855 9.81082 2.31229C10.271 2.31417 10.6455 1.94261 10.6474 1.48248C10.6493 1.02235 10.2777 0.647756 9.8176 0.645884C7.97707 0.638393 6.47871 2.1246 6.47122 3.96514L6.46783 4.79835L4.80142 4.79156C2.50074 4.7822 0.627796 6.63996 0.618433 8.94064L0.48618 41.4356C0.476816 43.7363 2.33458 45.6093 4.63525 45.6186L23.799 45.6966C28.1733 45.7144 28.1733 45.7144 28.1767 44.8812C28.1788 44.6599 28.0926 44.4464 27.9374 44.2887C27.7729 44.1237 27.5467 44.0349 27.3135 44.0445ZM4.79463 6.45797L6.46104 6.46476L6.45765 7.29796C6.45016 9.1385 7.93637 10.6369 9.77691 10.6443C11.6174 10.6518 13.1158 9.16563 13.1233 7.32509L13.1267 6.49189L20.6255 6.52241L20.6221 7.35561C20.6147 9.19615 22.1009 10.6945 23.9414 10.702C25.7819 10.7095 27.2803 9.22328 27.2878 7.38274L27.2912 6.54953L34.79 6.58005L34.7866 7.41326C34.7791 9.2538 36.2654 10.7522 38.1059 10.7596C39.9464 10.7671 41.4448 9.28093 41.4523 7.44039L41.4557 6.60718L43.1221 6.61397C44.5025 6.61958 45.6171 7.74335 45.6115 9.12375L45.5946 13.2898L2.26789 13.1134L2.28484 8.94742C2.29046 7.56701 3.41423 6.45236 4.79463 6.45797Z" fill="#FFBB01"/>
<path d="M15.5789 18.1669C15.5808 17.7068 15.2092 17.3322 14.7491 17.3303L8.08345 17.3032C7.62332 17.3013 7.24873 17.6729 7.24685 18.133L7.21972 24.7987C7.21785 25.2588 7.5894 25.6334 8.04954 25.6353L14.7152 25.6624C15.1753 25.6643 15.5499 25.2927 15.5518 24.8326L15.5789 18.1669ZM13.8888 23.9926L8.88953 23.9722L8.90987 18.973L13.9091 18.9933L13.8888 23.9926Z" fill="#FFBB01"/>
<path d="M14.6948 30.6617C15.155 30.6635 15.5296 30.292 15.5314 29.8318C15.5333 29.3717 15.1617 28.9971 14.7016 28.9952L8.03596 28.9681C7.57583 28.9662 7.20124 29.3378 7.19937 29.7979L7.17224 36.4636C7.17037 36.9237 7.54192 37.2983 8.00205 37.3002L14.6677 37.3273C15.1278 37.3292 15.5024 36.9576 15.5043 36.4975L15.5179 33.1647C15.5197 32.7045 15.1482 32.3299 14.688 32.3281C14.2279 32.3262 13.8533 32.6977 13.8514 33.1579L13.8413 35.6575L8.84204 35.6371L8.86239 30.6379L14.6948 30.6617Z" fill="#FFBB01"/>
<path d="M19.7009 29.0155C19.2408 29.0137 18.8662 29.3852 18.8643 29.8454L18.8372 36.511C18.8353 36.9711 19.2069 37.3457 19.667 37.3476L26.3326 37.3747C26.7928 37.3766 27.1674 37.005 27.1692 36.5449L27.1964 29.8793C27.1982 29.4191 26.8267 29.0445 26.3665 29.0427L19.7009 29.0155ZM25.5062 35.7049L20.507 35.6846L20.5273 30.6853L25.5266 30.7057L25.5062 35.7049Z" fill="#FFBB01"/>
<path d="M38.0517 24.0909C38.5118 24.0928 38.8864 23.7213 38.8883 23.2611L38.9086 18.2619C38.9105 17.8018 38.539 17.4272 38.0788 17.4253L31.4132 17.3982C30.9531 17.3963 30.5785 17.7678 30.5766 18.228L30.5495 24.8936C30.5476 25.3538 30.9192 25.7283 31.3793 25.7302C31.8394 25.7321 32.214 25.3605 32.2159 24.9004L32.2396 19.068L37.2389 19.0883L37.2219 23.2543C37.22 23.7145 37.5916 24.0891 38.0517 24.0909Z" fill="#FFBB01"/>
<path d="M27.0046 17.6219C26.8486 17.4634 26.6362 17.3739 26.4141 17.3729C26.1919 17.372 25.9784 17.4599 25.8215 17.6171L23.069 20.3553L20.339 17.5948C20.0136 17.2667 19.4839 17.2646 19.1559 17.59C18.8278 17.9153 18.8257 18.445 19.151 18.773L21.8893 21.5255L19.1287 24.2556C18.9702 24.4112 18.8807 24.624 18.8798 24.8461C18.8789 25.0683 18.9667 25.2818 19.1239 25.4387C19.2795 25.5972 19.4923 25.6867 19.7145 25.6876C19.9366 25.6885 20.1497 25.6007 20.307 25.4435L23.0595 22.7052L25.7896 25.4658C25.9451 25.6243 26.158 25.7139 26.3801 25.7148C26.6022 25.7157 26.8154 25.6278 26.9726 25.4706C27.1311 25.315 27.2207 25.1022 27.2216 24.8801C27.2225 24.658 27.1347 24.4444 26.9775 24.2875L24.2392 21.5351L26.9998 18.805C27.1583 18.6494 27.2478 18.4366 27.2487 18.2144C27.2496 17.9923 27.1618 17.7788 27.0046 17.6219Z" fill="#FFBB01"/>
</svg>
