<svg width="51" height="51" viewBox="0 0 51 51" fill="none" xmlns="http://www.w3.org/2000/svg">
<path d="M50.5098 12.3611C50.3404 11.7205 49.9227 11.1732 49.3496 10.8401C48.7761 10.5054 48.093 10.4127 47.4512 10.5822C46.8101 10.7521 46.2629 11.1693 45.9298 11.7424L45.5102 12.4657C45.1153 12.2367 44.6091 12.3685 44.376 12.7613L42.245 16.3601L41.5217 15.9405C41.3301 15.8287 41.1016 15.7976 40.8874 15.8545C40.6728 15.9118 40.4899 16.0519 40.3789 16.2442C40.1515 16.6416 40.2869 17.1483 40.6827 17.3785L41.4059 17.7981L34.2739 30.042L32.5051 34.7094L31.6656 36.2637C31.1744 37.1104 31.2221 38.1655 31.7881 38.964L29.904 41.2557L29.3846 39.9375C29.1502 39.3499 28.6038 38.9457 27.9739 38.8939C27.3435 38.8417 26.7381 39.1509 26.4108 39.6919L26.1089 40.1988L25.8393 36.8649C25.7774 36.0762 25.1694 35.4399 24.3846 35.3415C23.5994 35.2435 22.8538 35.7112 22.5997 36.4603L20.5251 42.6008C20.3801 43.0351 20.6125 43.5047 21.0456 43.653C21.1268 43.6911 21.2142 43.7143 21.3037 43.7203C21.6617 43.723 21.9816 43.4961 22.0977 43.1572L24.1638 37.0168L24.4417 40.4003C24.499 41.1223 25.0152 41.7245 25.72 41.8909C26.4248 42.0573 27.1559 41.7494 27.5298 41.1297L27.8403 40.6224L28.3516 41.9329C28.5687 42.485 29.063 42.8805 29.6497 42.9703C30.2364 43.0602 30.8264 42.8311 31.1993 42.3692L33.1507 39.9195C33.3653 39.9765 33.5865 40.0055 33.8086 40.0056C34.7016 40.0161 35.5326 39.5492 35.9882 38.7809L36.827 37.3929L40.0172 33.5483L47.2247 21.1545L47.9479 21.5741C48.1407 21.6855 48.2807 21.8688 48.3372 22.0842C48.3941 22.298 48.3631 22.5257 48.2517 22.7169L44.8954 28.4774C44.7689 28.6665 44.7253 28.899 44.7748 29.1214C44.8244 29.3433 44.9623 29.5355 45.1571 29.653C45.3487 29.7653 45.5772 29.7963 45.7914 29.7394C46.0061 29.6821 46.1889 29.5421 46.2999 29.3497L49.6562 23.5892C49.9909 23.0157 50.0836 22.3326 49.9137 21.6907C49.7438 21.0497 49.3266 20.5024 48.7535 20.1693L48.0302 19.7498L50.1279 16.1505C50.3569 15.7556 50.2251 15.2497 49.8326 15.0162L50.2522 14.293C50.5959 13.7106 50.689 13.0136 50.5098 12.3611ZM47.3678 12.5815C47.4788 12.3891 47.6625 12.2487 47.8779 12.1922C48.0921 12.1402 48.3182 12.1708 48.5106 12.2782C48.7034 12.3892 48.8434 12.5728 48.9003 12.7879C48.9523 13.0021 48.9217 13.2282 48.8143 13.4206L48.3948 14.1438L46.9482 13.3047L47.3678 12.5815ZM35.9169 35.7981L35.5013 35.5548L34.2711 34.8329L35.467 31.6718L38.0853 33.1987L35.9169 35.7981ZM33.4075 38.1955C33.0566 37.9488 32.9503 37.4764 33.1622 37.103L33.5817 36.3801L35.0279 37.2192L34.6084 37.934C34.4908 38.1361 34.2941 38.2793 34.0657 38.3292C33.8372 38.3787 33.5986 38.3306 33.4075 38.1955ZM39.0408 31.8365L36.1648 30.1583L42.8773 18.6372L45.7533 20.3153L39.0408 31.8365ZM46.5924 18.8773L43.7163 17.1992L45.3945 14.3232L48.2705 16.0013L46.5924 18.8773Z" fill="#FFBB01"/>
<path d="M13.6505 37.703L10.6895 40.6324L8.9302 38.8588C8.60646 38.5344 8.08165 38.5323 7.75528 38.854C7.5968 39.01 7.50724 39.2224 7.50634 39.4445C7.50543 39.6666 7.59326 39.8802 7.75047 40.037L9.50973 41.8107C9.82091 42.1219 10.2425 42.2974 10.6827 42.2988C11.1253 42.303 11.552 42.131 11.8677 41.8203L14.8207 38.8827C15.1052 38.5531 15.088 38.0604 14.7817 37.7516C14.475 37.4424 13.9824 37.4212 13.6505 37.703Z" fill="#FFBB01"/>
<path d="M3.82671 39.9044C3.81079 43.8161 6.9687 46.9994 10.88 47.0153C14.7912 47.0312 17.9749 43.8737 17.9908 39.9621C17.9927 39.5019 17.6212 39.1274 17.1611 39.1255C16.7009 39.1236 16.3263 39.4952 16.3245 39.9553C16.3123 42.9463 13.8777 45.3611 10.8867 45.3489C7.89573 45.3368 5.4809 42.9022 5.49308 39.9112C5.50525 36.9202 7.93981 34.5054 10.9308 34.5175C12.1033 34.5191 13.2429 34.9041 14.1757 35.6141C14.5428 35.8919 15.0655 35.8192 15.3428 35.4521C15.6205 35.085 15.5482 34.5628 15.1812 34.285C13.0417 32.6669 10.1713 32.3965 7.7674 33.586C5.36304 34.776 3.83762 37.2222 3.82671 39.9044Z" fill="#FFBB01"/>
<path d="M30.6224 7.10204C31.0825 7.10392 31.4571 6.73278 31.459 6.27225C31.4609 5.81213 31.0893 5.43755 30.6292 5.43567L8.96639 5.34751C8.50627 5.34563 8.13169 5.71718 8.12982 6.1773L8.11625 9.51004C8.11438 9.97057 8.48592 10.3447 8.94605 10.3466L30.6089 10.4348C31.069 10.4367 31.4436 10.0655 31.4454 9.60499C31.4473 9.14486 31.0758 8.77028 30.6156 8.76841L9.78602 8.68364L9.7928 7.01727L30.6224 7.10204Z" fill="#FFBB01"/>
<path d="M11.4389 12.0232C10.9788 12.0214 10.6042 12.3929 10.6023 12.853C10.6004 13.3135 10.972 13.6877 11.4321 13.6896L28.0958 13.7574C28.5559 13.7593 28.9305 13.3881 28.9324 12.9276C28.9343 12.4675 28.5627 12.0929 28.1026 12.091L11.4389 12.0232Z" fill="#FFBB01"/>
<path d="M33.078 17.9437L14.7479 17.8691C14.2878 17.8672 13.9132 18.2387 13.9114 18.6988C13.9095 19.1594 14.281 19.5336 14.7412 19.5354L33.0712 19.61C33.5313 19.6119 33.9059 19.2408 33.9078 18.7802C33.9097 18.3201 33.5381 17.9455 33.078 17.9437Z" fill="#FFBB01"/>
<path d="M24.7224 23.7421C24.7242 23.282 24.3527 22.9074 23.8926 22.9055L7.22888 22.8377C6.76875 22.8358 6.39417 23.2074 6.3923 23.6675C6.39043 24.128 6.76197 24.5022 7.22209 24.5041L23.8858 24.5719C24.3459 24.5737 24.7205 24.2026 24.7224 23.7421Z" fill="#FFBB01"/>
<path d="M33.0576 22.9428L27.2253 22.919C26.7652 22.9172 26.3906 23.2887 26.3887 23.7488C26.3869 24.2094 26.7584 24.5835 27.2185 24.5854L33.0508 24.6092C33.5109 24.611 33.8855 24.2399 33.8874 23.7794C33.8893 23.3192 33.5177 22.9447 33.0576 22.9428Z" fill="#FFBB01"/>
<path d="M15.537 28.7038C15.9971 28.7057 16.3717 28.3346 16.3736 27.8741C16.3754 27.4139 16.0039 27.0394 15.5438 27.0375L7.21194 27.0036C6.75182 27.0017 6.37724 27.3732 6.37536 27.8334C6.37349 28.2939 6.74503 28.6681 7.20516 28.6699L15.537 28.7038Z" fill="#FFBB01"/>
<path d="M18.8697 28.7174L24.702 28.7412C25.1621 28.743 25.5367 28.3719 25.5385 27.9114C25.5404 27.4512 25.1689 27.0767 24.7087 27.0748L18.8765 27.0511C18.4163 27.0492 18.0418 27.4207 18.0399 27.8808C18.038 28.3414 18.4096 28.7155 18.8697 28.7174Z" fill="#FFBB01"/>
<path d="M37.9923 38.7937C37.5322 38.7918 37.1576 39.1633 37.1557 39.6235L37.1218 47.9553C37.1199 48.4158 36.7453 48.787 36.2852 48.7851L2.95784 48.6495C2.49772 48.6476 2.12617 48.2734 2.12805 47.8129L2.31116 2.82091C2.31304 2.36079 2.68762 1.98924 3.14774 1.99112L36.4751 2.12676C36.9352 2.12863 37.3068 2.50321 37.3049 2.96333L37.2412 18.6108C37.2394 19.0709 37.6109 19.4455 38.071 19.4473C38.5311 19.4492 38.9057 19.0777 38.9076 18.6176L38.9713 2.97012C38.9769 1.58975 37.8623 0.466007 36.4819 0.460389L3.15452 0.324748C1.77415 0.31913 0.650413 1.43376 0.644795 2.81413L0.46168 47.8061C0.456061 49.1869 1.57069 50.3102 2.95106 50.3158L36.2784 50.4515C37.6588 50.4571 38.7825 49.3429 38.7882 47.9621L38.8221 39.6302C38.8239 39.1701 38.4524 38.7955 37.9923 38.7937Z" fill="#FFBB01"/>
</svg>
