<svg width="51" height="51" viewBox="0 0 51 51" fill="none" xmlns="http://www.w3.org/2000/svg">
<path d="M48.7465 36.1356L48.7559 33.8356L49.5891 33.839C49.819 33.8416 50.0394 33.7489 50.1984 33.5832C50.3406 33.4255 50.4216 33.2216 50.4257 33.0092L49.0495 4.67332C48.9168 2.37973 47.0225 0.584696 44.725 0.575345C42.4275 0.565995 40.5186 2.34555 40.3673 4.63798L38.7605 32.9617C38.7527 33.1887 38.8323 33.4096 38.983 33.5794C39.1475 33.731 39.3665 33.81 39.5903 33.7983L40.4236 33.8017L40.4142 36.1017L38.8264 39.2532C38.7067 39.4883 38.7055 39.7666 38.8234 40.003L43.7821 50.0221C43.8224 50.1143 43.8819 50.1967 43.956 50.2645C44.0529 50.3548 44.1698 50.4212 44.297 50.4575L44.7551 50.4594C44.883 50.4241 45.0005 50.3587 45.0977 50.2692C45.1728 50.2019 45.2325 50.12 45.2736 50.0282L50.3137 40.0498C50.4334 39.8143 50.4345 39.536 50.3167 39.3L48.7465 36.1356ZM40.4719 32.1354L40.8493 25.471L48.398 25.5018L48.7626 32.1692L40.4719 32.1354ZM42.0336 4.68667C42.0396 3.20939 43.2419 2.0165 44.7191 2.02251C46.1964 2.02852 47.3889 3.23117 47.3829 4.70844L48.313 23.8768L40.9474 23.8468L41.0458 22.1808L45.6867 22.1996C46.1473 22.2015 46.5214 21.83 46.5233 21.3698C46.5252 20.9093 46.154 20.5351 45.6935 20.5332L41.1359 20.5146L42.0336 4.68667ZM47.0894 33.8289L47.0826 35.4953L42.0832 35.475L42.09 33.8085L47.0894 33.8289ZM45.3729 46.1208L45.3958 40.4879L46.229 40.4913C46.6892 40.4932 47.0638 40.1216 47.0657 39.6615C47.0675 39.2013 46.696 38.8267 46.2358 38.8248L42.9029 38.8113C42.4428 38.8094 42.0682 39.181 42.0663 39.6411C42.0644 40.1013 42.436 40.4759 42.8961 40.4777L43.7294 40.4811L43.7064 46.114L40.4999 39.6347L41.7599 37.1401L47.3924 37.1631L48.632 39.6678L45.3729 46.1208Z" fill="#FFBB01"/>
<path d="M28.85 11.257C29.3101 11.2589 29.6847 10.8874 29.6866 10.4272C29.6885 9.96706 29.3169 9.59246 28.8568 9.59059L7.19282 9.50241C6.73267 9.50054 6.35807 9.8721 6.3562 10.3323L6.34263 13.6652C6.34076 14.1253 6.71232 14.4999 7.17247 14.5018L28.8364 14.59C29.2966 14.5918 29.6712 14.2203 29.673 13.7601C29.6749 13.3 29.3034 12.9254 28.8432 12.9235L8.01248 12.8387L8.01926 11.1723L28.85 11.257Z" fill="#FFBB01"/>
<path d="M29.6527 18.7595C29.6546 18.2994 29.283 17.9247 28.8229 17.9229L10.4918 17.8483C10.0317 17.8464 9.65708 18.218 9.65521 18.6781C9.65334 19.1383 10.0249 19.5129 10.485 19.5147L28.8161 19.5893C29.2762 19.5912 29.6508 19.2196 29.6527 18.7595Z" fill="#FFBB01"/>
<path d="M5.47207 22.8273C5.4702 23.2874 5.84176 23.662 6.30191 23.6639L19.6336 23.7181C20.0937 23.72 20.4683 23.3484 20.4702 22.8883C20.4721 22.4281 20.1005 22.0535 19.6404 22.0517L6.30869 21.9974C5.84855 21.9955 5.47395 22.3671 5.47207 22.8273Z" fill="#FFBB01"/>
<path d="M24.6398 22.072C24.1796 22.0702 23.805 22.4417 23.8032 22.9019C23.8013 23.362 24.1728 23.7366 24.633 23.7385L27.9659 23.7521C28.4261 23.7539 28.8007 23.3824 28.8025 22.9222C28.8044 22.4621 28.4329 22.0875 27.9727 22.0856L24.6398 22.072Z" fill="#FFBB01"/>
<path d="M17.1203 27.0409C17.1222 26.5807 16.7507 26.2061 16.2905 26.2043L6.29176 26.1636C5.83161 26.1617 5.45701 26.5333 5.45514 26.9934C5.45326 27.4535 5.82483 27.8281 6.28497 27.83L16.2837 27.8707C16.7439 27.8726 17.1185 27.501 17.1203 27.0409Z" fill="#FFBB01"/>
<path d="M16.2702 31.2037C16.272 30.7436 15.9005 30.369 15.4403 30.3671L6.27479 30.3298C5.81464 30.3279 5.44004 30.6995 5.43817 31.1596C5.43629 31.6198 5.80786 31.9944 6.26801 31.9963L15.4335 32.0336C15.8937 32.0354 16.2683 31.6639 16.2702 31.2037Z" fill="#FFBB01"/>
<path d="M6.25785 34.4959C5.7977 34.494 5.4231 34.8656 5.42123 35.3257C5.41936 35.7859 5.79092 36.1605 6.25107 36.1624L12.0837 36.1861C12.5438 36.188 12.9184 35.8164 12.9203 35.3563C12.9222 34.8961 12.5506 34.5215 12.0905 34.5196L6.25785 34.4959Z" fill="#FFBB01"/>
<path d="M33.0602 0.44198L3.06393 0.319897C1.68348 0.314278 0.559684 1.42897 0.554066 2.80941L0.398071 41.138C0.392452 42.5184 1.50714 43.6422 2.88759 43.6478L17.0525 43.7055C17.5126 43.7074 17.8872 43.3358 17.8891 42.8756C17.891 42.4155 17.5194 42.0409 17.0593 42.039L2.89437 41.9814C2.43422 41.9795 2.06266 41.6049 2.06453 41.1448L2.20018 7.81557L33.8629 7.94444L33.7273 41.2736C33.7254 41.7338 33.3508 42.1053 32.8906 42.1035L30.3909 42.0933C29.9308 42.0914 29.5562 42.463 29.5543 42.9231C29.5525 43.3833 29.924 43.7579 30.3842 43.7597L32.8839 43.7699C34.2643 43.7755 35.3881 42.6608 35.3937 41.2804L35.5497 2.95184C35.5553 1.5714 34.4406 0.447598 33.0602 0.44198ZM2.20696 6.14911L2.22053 2.81619C2.2224 2.35605 2.597 1.98448 3.05715 1.98636L33.0534 2.10844C33.5136 2.11031 33.8851 2.48491 33.8832 2.94506L33.8697 6.27798L2.20696 6.14911Z" fill="#FFBB01"/>
<path d="M23.7692 31.2341C22.3887 31.2285 21.2649 32.3432 21.2593 33.7237C21.2537 35.1041 22.3684 36.2279 23.7488 36.2335C25.1293 36.2391 26.253 35.1245 26.2587 33.744C26.2643 32.3636 25.1496 31.2398 23.7692 31.2341ZM23.7556 34.5671C23.2954 34.5652 22.9239 34.1906 22.9258 33.7304C22.9276 33.2703 23.3022 32.8987 23.7624 32.9006C24.2225 32.9025 24.5941 33.2771 24.5922 33.7372C24.5903 34.1974 24.2157 34.5689 23.7556 34.5671Z" fill="#FFBB01"/>
<path d="M30.4248 33.761C30.4274 32.835 29.9182 31.983 29.1006 31.5476C29.3768 30.6634 29.1414 29.6994 28.4895 29.0417C27.8371 28.3844 26.8751 28.1412 25.9887 28.4102C25.5583 27.5915 24.7113 27.077 23.7861 27.0733C22.8609 27.0695 22.0097 27.5771 21.5727 28.3923C20.6885 28.1161 19.7245 28.3514 19.0668 29.0033C18.4095 29.6557 18.1664 30.6177 18.4354 31.5042C17.6163 31.9345 17.1022 32.7815 17.0984 33.7067C17.0947 34.6319 17.6018 35.4835 18.4174 35.9201C18.1412 36.8023 18.3745 37.7646 19.0236 38.4223C19.1857 38.5853 19.3703 38.7236 19.572 38.833L19.5284 49.5482C19.5287 49.8847 19.7313 50.1878 20.042 50.3169C20.3515 50.4487 20.7102 50.381 20.9508 50.1456L23.7033 47.4073L26.4335 50.1679C26.5899 50.3248 26.8028 50.4123 27.0241 50.412C27.1335 50.4153 27.2418 50.3929 27.3409 50.3466C27.6526 50.2201 27.8577 49.9186 27.8607 49.5822L27.9043 38.8751C28.1069 38.7673 28.2926 38.6305 28.456 38.4692C29.1104 37.8165 29.3516 36.8564 29.0826 35.9721C29.9062 35.5417 30.4231 34.6902 30.4248 33.761ZM24.3021 45.6431C24.1465 45.4846 23.9337 45.3951 23.7115 45.3942C23.4894 45.3933 23.2758 45.4811 23.119 45.6383L21.203 47.5468L21.2373 39.1315L21.5293 39.0574C21.9597 39.8766 22.8067 40.3906 23.7319 40.3944C24.6571 40.3981 25.5082 39.891 25.9453 39.0754L26.2367 39.1519L26.2024 47.5672L24.3021 45.6431ZM27.9217 34.584L27.7802 34.5834C27.4409 34.5804 27.1333 34.7834 27.003 35.097C26.8736 35.4085 26.9445 35.7673 27.1828 36.0058L27.2825 36.1063C27.6042 36.4327 27.6021 36.9575 27.2777 37.2813C27.1854 37.3774 27.0703 37.4485 26.9432 37.4883L26.8183 37.4877C26.5557 37.5274 26.29 37.4396 26.1028 37.2513L26.0031 37.1508C25.7657 36.9098 25.4059 36.8359 25.0929 36.9644C24.7795 37.0929 24.5753 37.3985 24.5759 37.737L24.5753 37.9034C24.5734 38.3635 24.1988 38.7351 23.7386 38.7332C23.2785 38.7313 22.9069 38.3567 22.9088 37.8966L22.9094 37.755C22.9124 37.4157 22.7094 37.1081 22.3958 36.9779C22.2955 36.9376 22.1878 36.9176 22.0795 36.9184C21.8582 36.9163 21.6447 37.0025 21.487 37.1576L21.3865 37.2573C21.1978 37.4441 20.9313 37.5297 20.6691 37.4875L20.5442 37.487C20.4174 37.4466 20.303 37.3746 20.2114 37.2774C19.8897 36.951 19.8918 36.4261 20.2162 36.1024L20.3252 36.0031C20.5654 35.7661 20.6393 35.408 20.512 35.0954C20.3843 34.7812 20.0788 34.5753 19.7395 34.5759L19.5893 34.5753C19.1292 34.5735 18.7576 34.1989 18.7595 33.7387C18.7614 33.2782 19.136 32.907 19.5961 32.9089L19.7377 32.9094C20.077 32.9125 20.3846 32.7091 20.5149 32.3959C20.6443 32.0844 20.5733 31.7256 20.3351 31.4867L20.2354 31.3866C19.91 31.0606 19.9105 30.5329 20.2361 30.2075C20.5621 29.8821 21.0898 29.8822 21.4152 30.2082L21.5148 30.3169C21.7515 30.5571 22.11 30.6309 22.4222 30.5036C22.7368 30.3759 22.9423 30.0704 22.942 29.7311L22.9427 29.5643C22.9446 29.1041 23.3192 28.7326 23.7793 28.7345C24.2395 28.7363 24.611 29.1109 24.6092 29.5711L24.6086 29.7127C24.6056 30.0524 24.8086 30.3596 25.1221 30.4898C25.4333 30.6192 25.7924 30.5487 26.031 30.31L26.1315 30.2107C26.4571 29.8854 26.9852 29.8855 27.3105 30.2111C27.6359 30.5371 27.6354 31.0648 27.3098 31.3901L27.2012 31.4898C26.961 31.7264 26.8871 32.085 27.014 32.3971C27.1417 32.7117 27.4476 32.9172 27.7869 32.917L27.9285 32.9176C28.3887 32.9194 28.7602 33.294 28.7584 33.7542C28.7565 34.2143 28.3819 34.5859 27.9217 34.584Z" fill="#FFBB01"/>
</svg>
