<svg width="51" height="50" viewBox="0 0 51 50" fill="none" xmlns="http://www.w3.org/2000/svg">
<path d="M49.6254 24.9729L30.5672 24.8954C30.107 24.8935 29.7323 25.2651 29.7305 25.7253C29.7286 26.1855 30.1002 26.5601 30.5604 26.562L48.7853 26.6362L48.7514 34.9695L44.5848 34.9525L44.6085 29.1192C44.6104 28.659 44.2388 28.2844 43.7786 28.2825C43.3184 28.2806 42.9437 28.6522 42.9419 29.1124L42.9181 34.9457L20.4183 34.8541L20.4522 26.5209L25.4522 26.5412C25.9124 26.5431 26.287 26.1715 26.2889 25.7113C26.2908 25.2511 25.9192 24.8764 25.459 24.8746L19.6257 24.8508C19.1655 24.849 18.7908 25.2206 18.789 25.6808L18.7483 35.6807C18.7464 36.1409 19.118 36.5155 19.5782 36.5174L27.0781 36.5479L27.0714 38.2146L19.5714 38.1841C19.1112 38.1822 18.7366 38.5538 18.7347 39.014L18.711 44.8473L16.211 44.8371L16.2144 44.0038C16.2163 43.5436 15.8446 43.1689 15.3844 43.1671L12.8845 43.1569L12.9014 38.9902C12.9033 38.53 12.5317 38.1554 12.0715 38.1535C11.6113 38.1517 11.2366 38.5233 11.2348 38.9835L11.2144 43.9834C11.2125 44.4436 11.5842 44.8183 12.0444 44.8201L14.5443 44.8303L14.5375 46.497L6.20429 46.4631L6.21107 44.7964L8.71105 44.8066C9.17125 44.8084 9.54589 44.4368 9.54777 43.9766L9.56812 38.9767C9.56999 38.5165 9.19838 38.1418 8.73818 38.14C8.27798 38.1381 7.90334 38.5097 7.90146 38.9699L7.88451 43.1365L5.38453 43.1264C4.92432 43.1245 4.54968 43.4961 4.54781 43.9563L4.54442 44.7896L1.21111 44.7761C0.75091 44.7742 0.376266 45.1458 0.374393 45.606C0.37252 46.0662 0.744126 46.4408 1.20433 46.4427L4.53763 46.4563L4.53424 47.2896C4.53237 47.7498 4.90398 48.1244 5.36418 48.1263L15.3641 48.167C15.8243 48.1689 16.1989 47.7973 16.2008 47.3371L16.2042 46.5038L18.7042 46.5139L18.694 49.0139C18.6921 49.4741 19.0637 49.8488 19.5239 49.8506L49.5237 49.9727C49.9839 49.9746 50.3585 49.603 50.3604 49.1428L50.4011 39.1429C50.403 38.6827 50.0314 38.308 49.5712 38.3062L42.0712 38.2756L42.078 36.609L49.578 36.6395C50.0382 36.6414 50.4128 36.2698 50.4147 35.8096L50.4554 25.8096C50.4572 25.3494 50.0856 24.9748 49.6254 24.9729ZM48.6971 48.3027L20.3641 48.1874L20.398 39.8541L42.8978 39.9457L42.874 45.779C42.8722 46.2392 43.2438 46.6138 43.704 46.6157C44.1642 46.6175 44.5388 46.2459 44.5407 45.7857L44.5644 39.9525L48.7311 39.9694L48.6971 48.3027ZM40.4046 38.2688L28.738 38.2214L28.7448 36.5547L40.4114 36.6022L40.4046 38.2688Z" fill="#FFBB01"/>
<path d="M25.4453 28.2079C24.0647 28.2022 22.9408 29.3171 22.9351 30.6977C22.9295 32.0787 24.0443 33.2022 25.4249 33.2078C26.8055 33.2134 27.9295 32.099 27.9351 30.718C27.9407 29.3374 26.8259 28.2135 25.4453 28.2079ZM25.4317 31.5412C24.9715 31.5393 24.5999 31.1647 24.6018 30.7045C24.6037 30.2443 24.9783 29.8726 25.4385 29.8745C25.8987 29.8764 26.2703 30.251 26.2684 30.7112C26.2666 31.1714 25.8919 31.543 25.4317 31.5412Z" fill="#FFBB01"/>
<path d="M30.4251 33.2282C30.8853 33.23 31.2599 32.8584 31.2618 32.3982L31.2754 29.0649C31.2773 28.6047 30.9057 28.2301 30.4454 28.2282C29.9852 28.2263 29.6106 28.5979 29.6087 29.0581L29.5952 32.3915C29.5933 32.8517 29.9649 33.2263 30.4251 33.2282Z" fill="#FFBB01"/>
<path d="M34.595 32.4118L34.6086 29.0785C34.6105 28.6183 34.2389 28.2437 33.7787 28.2418C33.3185 28.2399 32.9438 28.6115 32.942 29.0717L32.9284 32.405C32.9265 32.8652 33.2981 33.2399 33.7583 33.2418C34.2185 33.2436 34.5932 32.872 34.595 32.4118Z" fill="#FFBB01"/>
<path d="M37.9283 32.4254L37.9418 29.0921C37.9437 28.6319 37.5721 28.2572 37.1119 28.2553C36.6517 28.2535 36.2771 28.6251 36.2752 29.0853L36.2616 32.4186C36.2597 32.8788 36.6313 33.2534 37.0915 33.2553C37.5518 33.2572 37.9264 32.8856 37.9283 32.4254Z" fill="#FFBB01"/>
<path d="M41.2615 32.439L41.2751 29.1056C41.2769 28.6454 40.9053 28.2708 40.4451 28.2689C39.9849 28.2671 39.6103 28.6387 39.6084 29.0989L39.5948 32.4322C39.593 32.8924 39.9646 33.267 40.4248 33.2689C40.885 33.2708 41.2596 32.8992 41.2615 32.439Z" fill="#FFBB01"/>
<path d="M27.0509 43.2146C26.5907 43.2127 26.216 43.5843 26.2142 44.0445C26.2123 44.5047 25.8377 44.8763 25.3774 44.8744C24.9172 44.8726 24.5456 44.4979 24.5475 44.0377C24.5494 43.5775 24.924 43.2059 25.3842 43.2078C25.8444 43.2097 26.2191 42.8381 26.221 42.3779C26.2228 41.9177 25.8512 41.543 25.391 41.5411C24.0104 41.5355 22.8865 42.6503 22.8809 44.0309C22.8752 45.4119 23.9901 46.5355 25.3707 46.5411C26.7513 46.5467 27.8752 45.4323 27.8808 44.0513C27.8827 43.5911 27.5111 43.2164 27.0509 43.2146Z" fill="#FFBB01"/>
<path d="M30.3912 41.5615C29.931 41.5596 29.5563 41.9312 29.5545 42.3914L29.5409 45.7247C29.539 46.1849 29.9106 46.5596 30.3708 46.5614C30.831 46.5633 31.2057 46.1917 31.2076 45.7315L31.2211 42.3982C31.223 41.938 30.8514 41.5634 30.3912 41.5615Z" fill="#FFBB01"/>
<path d="M33.7244 41.575C33.2642 41.5732 32.8896 41.9448 32.8877 42.405L32.8741 45.7383C32.8723 46.1985 33.2439 46.5731 33.7041 46.575C34.1643 46.5769 34.5389 46.2053 34.5408 45.7451L34.5543 42.4118C34.5562 41.9516 34.1846 41.5769 33.7244 41.575Z" fill="#FFBB01"/>
<path d="M37.0576 41.5886C36.5974 41.5867 36.2228 41.9583 36.2209 42.4185L36.2073 45.7518C36.2055 46.2121 36.5771 46.5867 37.0373 46.5886C37.4975 46.5904 37.8721 46.2188 37.874 45.7586L37.8876 42.4253C37.8894 41.9651 37.5178 41.5905 37.0576 41.5886Z" fill="#FFBB01"/>
<path d="M40.3909 41.6022C39.9307 41.6003 39.556 41.9719 39.5541 42.4321L39.5406 45.7654C39.5387 46.2256 39.9103 46.6003 40.3705 46.6021C40.8307 46.604 41.2054 46.2324 41.2072 45.7722L41.2208 42.4389C41.2227 41.9787 40.8511 41.6041 40.3909 41.6022Z" fill="#FFBB01"/>
<path d="M6.75279 30.4736C6.86286 30.5229 6.98198 30.5486 7.10242 30.5499C7.48859 30.5458 7.8209 30.2765 7.90585 29.9001C7.99039 29.5232 7.8056 29.1379 7.45879 28.9681C3.5489 27.1569 1.42807 22.8672 2.36358 18.6608C3.29867 14.4544 7.03767 11.4674 11.3467 11.4838C12.1923 11.4868 13.0332 11.6078 13.8453 11.8439C14.2598 11.9656 14.6981 11.7501 14.8556 11.3483C16.9749 5.91742 22.221 2.35395 28.0506 2.385C34.6902 2.44457 40.4087 7.08214 41.8386 13.5663C41.9117 13.9007 42.1816 14.1561 42.5191 14.2107C46.1536 14.8066 48.8178 17.9535 48.8057 21.6363C48.8011 21.8788 48.7834 22.1208 48.7527 22.3612C48.7213 22.5849 48.7822 22.8122 48.921 22.9901C49.0603 23.1681 49.2657 23.2821 49.4907 23.3058C49.7131 23.3299 49.936 23.2636 50.1087 23.1215C50.2818 22.9798 50.3904 22.7743 50.4105 22.5514C50.4483 22.2501 50.4691 21.947 50.4724 21.6431C50.5069 17.3463 47.5359 13.6086 43.3421 12.6723C41.5406 5.687 35.2711 0.783513 28.0573 0.718346C21.7977 0.672931 16.1061 4.34039 13.5608 10.0597C12.8359 9.90086 12.0957 9.81931 11.3535 9.8171C6.26563 9.80169 1.85264 13.3291 0.746397 18.2953C-0.359436 23.2616 2.13909 28.3283 6.75279 30.4736Z" fill="#FFBB01"/>
<path d="M13.7666 31.169C13.8353 31.1811 13.9061 31.1814 13.9749 31.1699C14.926 30.932 15.839 30.5626 16.6878 30.0725C16.8799 29.9618 17.0198 29.7793 17.0768 29.5655C17.1338 29.3513 17.1034 29.1237 16.9923 28.932C16.7624 28.5371 16.2575 28.4012 15.8603 28.6275C15.1408 29.0404 14.3685 29.3542 13.5648 29.5597C13.1044 29.6152 12.7763 30.0338 12.8318 30.4942C12.8873 30.9547 13.3059 31.2827 13.7664 31.2272L13.7666 31.169Z" fill="#FFBB01"/>
<path d="M10.4117 36.4801C10.8719 36.482 11.2466 36.1104 11.2485 35.6502L11.3017 22.5672L13.0989 25.2829C13.2514 25.5162 13.5104 25.6581 13.7891 25.6604C13.9531 25.6631 14.1136 25.6142 14.2479 25.5207C14.6294 25.2679 14.7356 24.7553 14.4861 24.3718L11.1732 19.3582C11.1732 19.3582 11.1732 19.3582 11.1314 19.3162C10.9744 19.1186 10.7356 19.0029 10.4829 19.0018C10.2302 19.0008 9.99047 19.1146 9.83179 19.3109C9.83179 19.3109 9.83179 19.3109 9.78971 19.3526L6.43606 24.339C6.23107 24.7174 6.34796 25.1895 6.70588 25.4286C7.06339 25.6677 7.54424 25.5952 7.81578 25.2614L9.63506 22.5604L9.58181 35.6434C9.57994 36.1036 9.95154 36.4782 10.4117 36.4801Z" fill="#FFBB01"/>
<path d="M31.7871 15.8752C31.406 15.6226 30.8921 15.7247 30.6363 16.1041L28.817 18.8051L28.8567 9.05499C28.8585 8.59479 28.4869 8.22015 28.0267 8.21827C27.5665 8.2164 27.1919 8.58801 27.19 9.04821L27.1503 18.7983L25.3531 16.0826C25.2045 15.8033 24.911 15.632 24.5948 15.6405C24.2786 15.649 23.9947 15.8354 23.8612 16.1221C23.7282 16.4089 23.7688 16.7463 23.9659 16.9937L27.2789 22.0073C27.433 22.2382 27.6916 22.3772 27.9691 22.3783C28.2466 22.3794 28.5064 22.2426 28.6623 22.0129L32.016 17.0265C32.2686 16.645 32.1665 16.1311 31.7871 15.8752Z" fill="#FFBB01"/>
</svg>
